<?xml version="1.0" encoding="UTF-8"?><svg xmlns="http://www.w3.org/2000/svg" viewBox="0 0 136.71 136.71"><defs><style>.d{fill:#fff;}.e{fill:#0e0e0f;opacity:.65;}</style></defs><g id="a"/><g id="b"><g id="c"><rect class="d" width="136.71" height="136.71"/><path class="e" d="M77.98,67v-2.78h-5.49v-5.49h-2.78v5.49h-5.49v2.78h5.49v5.49h2.78v-5.49h5.49Zm1.42-12.4c.73,0,1.37,.27,1.91,.81,.54,.54,.81,1.17,.81,1.91v16.54c0,.73-.27,1.38-.81,1.94-.54,.56-1.17,.84-1.91,.84h-16.54c-.73,0-1.38-.28-1.94-.84-.56-.56-.84-1.21-.84-1.94v-16.54c0-.73,.28-1.37,.84-1.91s1.21-.81,1.94-.81h16.54Zm-22.1,5.49v19.32h19.32v2.71h-19.32c-.73,0-1.37-.27-1.91-.81-.54-.54-.81-1.17-.81-1.91v-19.32h2.71Z"/></g></g></svg>